<?xml version="1.0" encoding="UTF-8" standalone="no"?>
<svg
   width="319.32001pt"
   height="296.70145pt"
   viewBox="0 0 319.32 296.70144"
   version="1.1"
   id="svg4"
   sodipodi:docname="evolio_logo3.svg"
   inkscape:version="1.4 (86a8ad7, 2024-10-11)"
   xmlns:inkscape="http://www.inkscape.org/namespaces/inkscape"
   xmlns:sodipodi="http://sodipodi.sourceforge.net/DTD/sodipodi-0.dtd"
   xmlns:xlink="http://www.w3.org/1999/xlink"
   xmlns="http://www.w3.org/2000/svg"
   xmlns:svg="http://www.w3.org/2000/svg"
   xmlns:rdf="http://www.w3.org/1999/02/22-rdf-syntax-ns#"
   xmlns:cc="http://creativecommons.org/ns#"
   xmlns:dc="http://purl.org/dc/elements/1.1/">
  <sodipodi:namedview
     id="namedview4"
     pagecolor="#ffffff"
     bordercolor="#000000"
     borderopacity="0.25"
     inkscape:showpageshadow="2"
     inkscape:pageopacity="0.0"
     inkscape:pagecheckerboard="0"
     inkscape:deskcolor="#d1d1d1"
     inkscape:document-units="pt"
     inkscape:zoom="1.481287"
     inkscape:cx="212.31537"
     inkscape:cy="197.80097"
     inkscape:window-width="1440"
     inkscape:window-height="830"
     inkscape:window-x="-6"
     inkscape:window-y="-6"
     inkscape:window-maximized="1"
     inkscape:current-layer="axes_1" />
  <metadata
     id="metadata1">
    <rdf:RDF>
      <cc:Work>
        <dc:type
           rdf:resource="http://purl.org/dc/dcmitype/StillImage" />
        <dc:date>2025-02-10T20:38:47.901455</dc:date>
        <dc:format>image/svg+xml</dc:format>
        <dc:creator>
          <cc:Agent>
            <dc:title>Matplotlib v3.10.0, https://matplotlib.org/</dc:title>
          </cc:Agent>
        </dc:creator>
      </cc:Work>
    </rdf:RDF>
  </metadata>
  <defs
     id="defs1">
    <linearGradient
       id="linearGradient1"
       inkscape:collect="always">
      <stop
         style="stop-color:#482475;stop-opacity:1;"
         offset="0"
         id="stop2" />
      <stop
         style="stop-color:#3e4181;stop-opacity:1;"
         offset="0.27926707"
         id="stop3" />
      <stop
         style="stop-color:#395087;stop-opacity:1;"
         offset="0.51420456"
         id="stop4" />
      <stop
         style="stop-color:#37578a;stop-opacity:1;"
         offset="0.75852275"
         id="stop5" />
      <stop
         style="stop-color:#355f8d;stop-opacity:1;"
         offset="1"
         id="stop1" />
    </linearGradient>
    <linearGradient
       id="swatch18"
       inkscape:swatch="solid">
      <stop
         style="stop-color:#44bf70;stop-opacity:1;"
         offset="0"
         id="stop18" />
    </linearGradient>
    <style
       type="text/css"
       id="style1">*{stroke-linejoin: round; stroke-linecap: butt}</style>
    <linearGradient
       inkscape:collect="always"
       xlink:href="#linearGradient1"
       id="linearGradient2"
       x1="236.17294"
       y1="285.50693"
       x2="263.22177"
       y2="147.28255"
       gradientUnits="userSpaceOnUse" />
  </defs>
  <g
     id="figure_1"
     transform="translate(0,-50.338568)">
    <g
       id="axes_1">
      <g
         id="patch_4"
         style="display:inline">
        <path
           d="m 98.212876,251.55328 c 19.701644,18.50189 32.455124,27.77832 69.574034,33.10828 14.83323,1.28203 28.17879,1.08356 39.85343,0.0647 11.67464,-1.01885 20.1706,-1.99155 29.82793,-4.85756 20.03998,-5.94727 21.91739,-11.26704 25.18166,-8.63895 6.56272,5.2837 -10.52039,23.78511 -23.56977,31.24477 -20.74814,11.86065 -38.65934,14.41201 -68.33216,14.66972 -28.46968,0.24726 -52.95675,-5.63063 -73.458,-16.89187 -20.50125,-11.319 -36.411375,-27.31575 -47.730375,-47.99025 -11.26125,-20.73224 -16.305891,-48.92446 -16.891875,-74.32424 -0.341925,-14.82091 1.428076,-30.41339 7.846014,-43.77701 6.009335,-12.51282 16.21325,-23.14051 27.399555,-31.35934 9.641397,-7.083755 21.205124,-11.717251 32.850761,-14.45865 19.77046,-4.653995 40.60083,-4.314025 60.86307,-2.9095 16.26394,1.127373 32.4815,4.259381 48.06368,9.053392 11.14331,3.42835 22.4139,7.428158 32.06694,13.966188 10.30713,6.98105 20.05706,15.6425 26.55259,26.2623 6.36894,10.41284 10.5436,22.71161 11.06539,34.90662 0.42456,9.92261 -1.62711,20.43854 -6.54452,29.06741 -6.06708,10.64627 -15.59709,20.12717 -26.73923,25.22671 -14.16054,6.481 -27.6989,8.4826 -41.94247,10.87545 -16.8442,2.82974 -34.00262,3.75094 -51.08018,4.05273 -11.55256,0.20415 -23.10242,-0.72959 -34.62979,-1.51895 -10.88975,-0.7457 -32.604522,-3.0379 -32.604522,-3.0379 0,0 7.215781,12.41824 12.377838,17.26595 z"
           clip-path="url(#p2b2006580c)"
           style="fill:url(#linearGradient2);stroke:#000000;stroke-width:1;stroke-linejoin:miter;stroke-dasharray:none"
           id="path4"
           sodipodi:nodetypes="scsssssccaaaaaaaaaasasacs" />
      </g>
      <g
         id="patch_3"
         style="display:inline">
        <path
           d="m 129.168,187.38 c 22.176,0 33.264,6.468 33.264,19.404 0,11.088 -11.088,16.632 -33.264,16.632 -33.264,0 -52.668,-11.088 -58.212,-33.264 -9.24,-48.048 12.012,-72.072 63.756,-72.072 73.92,3.696 110.88,22.176 110.88,55.44 0,27.72 -38.808,38.808 -83.16,33.264"
           clip-path="url(#p2b2006580c)"
           style="display:inline;fill:#ffffff;fill-opacity:1;stroke:#000000;stroke-width:1;stroke-linejoin:miter;stroke-dasharray:none"
           id="path3"
           sodipodi:nodetypes="cssccsc" />
      </g>
    </g>
  </g>
  <defs
     id="defs4">
    <clipPath
       id="p2b2006580c">
      <rect
         x="7.1999998"
         y="7.1999998"
         width="304.92001"
         height="332.64001"
         id="rect4" />
    </clipPath>
  </defs>
</svg>
